<svg width="149" height="41" viewBox="0 0 149 41" fill="none" xmlns="http://www.w3.org/2000/svg">
<path d="M22.2858 8.59584L10.8256 4L5.05633 12.851L4 26.1209L15.6084 29.187M27.8422 8.59584L24.3694 23.1486V32.3403L30.2731 34.6382L41.386 31.1913M41.386 31.1913L42.4278 10.5108M41.386 31.1913L42.4278 40M51.6363 39.234L50.5454 23.1486L52.4989 9.3611M54.5825 12.425L64.6535 13.9569L65.3481 23.1486L54.5825 25.8295M73.6827 39.234L75.4191 25.8295L73.6827 7.82916M69.8627 14.7229L81.3228 12.425H89.3102L91.3939 23.1486L69.8627 29.2764M79.5865 27.7444L95.9085 35.0212M99.034 7.82916L102.507 23.1486L103.549 37.7021M106.674 9.3611L116.398 7.82916L126.469 8.97811M116.398 10.5101L118.481 33.4892L122.649 35.0212M130.636 7.82916V24.2976L132.025 34.2552L148 30.0424M134.109 23.1486L145.916 19.7017M133.414 11.659L145.916 8.97811" stroke="white" stroke-width="6"/>
</svg>
