<svg width="150" height="52" viewBox="0 0 150 52" fill="none" xmlns="http://www.w3.org/2000/svg">
<path id="Vector 394" d="M3 44.4857L9.39165 32.1429L18.7911 20.4857M18.7911 22.8857L29.6945 27M12.7755 33.1714L24.0548 37.2857M35.7102 27.6857L31.9504 40.7143V48.2571L51.5013 46.8857M35.7102 39.3429L47.3656 38.3143M37.9661 30.7714L48.8695 30.0857L58.2689 27.6857M59.0209 35.9143L63.9086 51M54.5092 36.6L60.5248 34.8857L69.9243 33.1714L72.5562 37.9714L61.798 44.4857M63.9086 42.7714L80.4517 46.2M74.0601 30.0857L83.4596 25.2857L93.987 22.5429L95.4909 28.3714L86.0914 33.1714M88.3473 34.2L103.386 37.9714M75.94 22.5429L85.3395 35.9143L88.3473 42.4286M101.507 14.3143L104.514 26.3143L110.154 35.9143L113.914 35.2286L122.185 26.6571M122.185 26.6571L117.298 9.51429M122.185 26.6571L124.441 35.9143M133.089 34.2L128.577 14.3143L131.209 4.02857H133.841L136.473 9.51429L137.977 17.0571L140.984 7.11429L143.24 3H144.744L147 7.11429V17.7429L143.992 36.9429" stroke="white" stroke-width="6"/>
</svg>
