<svg width="20" height="32" viewBox="0 0 20 32" fill="none" xmlns="http://www.w3.org/2000/svg">
<path fill-rule="evenodd" clip-rule="evenodd" d="M6.90618 21.5388C6.64133 14.0091 6.61437 5.16387 6.82934 0L10.9632 0.141868C10.7394 5.51901 10.7838 14.9997 11.0875 22.6696C11.2309 22.3354 11.3622 22.0316 11.4737 21.7815C11.5894 21.5217 11.7341 21.2028 11.8624 20.9898C12.622 19.7286 13.0907 18.594 13.577 17.4166C13.7198 17.0712 13.864 16.722 14.0175 16.3649C14.6755 14.8346 15.4847 13.2303 17.0824 11.7871L20 14.45C19.0245 15.3311 18.4684 16.3417 17.8711 17.7309C17.7525 18.0068 17.6308 18.3021 17.5025 18.6136C17.0051 19.821 16.407 21.2728 15.4919 22.7921C15.495 22.787 15.4927 22.7917 15.4844 22.8089C15.4642 22.8506 15.4088 22.9652 15.3086 23.19C15.1861 23.4651 15.0321 23.8228 14.8518 24.2441C14.8135 24.3336 14.7741 24.4257 14.7337 24.5201C14.3982 25.3044 13.9952 26.2466 13.5847 27.1593C13.1301 28.1697 12.6397 29.2042 12.1984 29.9749C11.988 30.3425 11.7318 30.7523 11.4454 31.0774C11.3161 31.2241 11.0615 31.4938 10.6816 31.7005C10.272 31.9234 9.3322 32.2455 8.36254 31.6997C7.79418 31.3797 7.37091 30.8902 7.09737 30.5408C6.784 30.1405 6.47298 29.6645 6.17388 29.164C5.5736 28.1594 4.93676 26.9123 4.33009 25.6521C3.71999 24.3848 3.12282 23.0672 2.60395 21.9113C2.49478 21.6681 2.38961 21.4333 2.28877 21.2082C1.90375 20.3485 1.58187 19.6298 1.34162 19.1244C1.13399 18.6876 0.778884 17.5944 0.523797 16.793C0.383655 16.3528 0.252804 15.9324 0.157133 15.6226C0.109246 15.4675 0.0700499 15.3398 0.0427655 15.2505L0 15.1103L1.99383 14.6105C3.98789 14.1115 3.98788 14.1115 3.98788 14.1115L4.02877 14.2455C4.05527 14.3321 4.09354 14.4569 4.14038 14.6086C4.23417 14.9123 4.36185 15.3225 4.49796 15.7501C4.63456 16.1792 4.77738 16.6186 4.90189 16.9834C4.96426 17.1661 5.01956 17.3227 5.06546 17.4462C5.11636 17.5831 5.14001 17.6364 5.1398 17.636C5.39925 18.1818 5.74436 18.9524 6.13199 19.818C6.23042 20.0378 6.3316 20.2637 6.43481 20.4936C6.58686 20.8324 6.74447 21.1823 6.90618 21.5388Z" fill="white"/>
</svg>
