<svg width="265" height="73" viewBox="0 0 265 73" fill="none" xmlns="http://www.w3.org/2000/svg">
<path d="M39.508 16.1704L19.1344 8L8.87791 23.7351L7 47.3261L27.6372 52.7769M49.3861 16.1704L43.2123 42.042V58.3827L53.7078 62.4679L73.464 56.3401M73.464 56.3401L75.3161 19.5747M73.464 56.3401L75.3161 72M91.6868 70.6383L89.7474 42.042L93.2202 17.5308M96.9245 22.9778L114.829 25.7012L116.063 42.042L96.9245 46.808M130.88 70.6383L133.967 46.808L130.88 14.8074M124.089 27.0629L144.463 22.9778H158.663L162.367 42.042L124.089 52.9358M141.376 50.2124L170.393 63.1488M175.949 14.8074L182.123 42.042L183.975 67.9148M189.532 17.5308L206.818 14.8074L224.722 16.85M206.818 19.5734L210.523 60.4253L217.931 63.1488M232.131 14.8074V44.0846L234.6 61.787L263 54.2975M238.305 42.042L259.296 35.9142M237.07 21.616L259.296 16.85" stroke="black" stroke-width="12"/>
</svg>
