<svg width="300" height="104" viewBox="0 0 300 104" fill="none" xmlns="http://www.w3.org/2000/svg">
<path d="M6 88.9714L18.7833 64.2857L37.5822 40.9714M37.5822 45.7714L59.389 54M25.5509 66.3429L48.1097 74.5714M71.4204 55.3714L63.9008 81.4286V96.5143L103.003 93.7714M71.4204 78.6857L94.7311 76.6286M75.9321 61.5429L97.7389 60.1714L116.538 55.3714M118.042 71.8286L127.817 102M109.018 73.2L121.05 69.7714L139.849 66.3429L145.112 75.9429L123.596 88.9714M127.817 85.5429L160.903 92.4M148.12 60.1714L166.919 50.5714L187.974 45.0857L190.982 56.7429L172.183 66.3429M176.695 68.4L206.773 75.9429M151.88 45.0857L170.679 71.8286L176.695 84.8571M203.013 28.6286L209.029 52.6286L220.308 71.8286L227.828 70.4571L244.371 53.3143M244.371 53.3143L234.595 19.0286M244.371 53.3143L248.883 71.8286M266.178 68.4L257.154 28.6286L262.418 8.05714H267.681L272.945 19.0286L275.953 34.1143L281.969 14.2286L286.48 6H289.488L294 14.2286V35.4857L287.984 73.8857" stroke="black" stroke-width="12"/>
</svg>
