<svg width="199" height="54" viewBox="0 0 199 54" fill="none" xmlns="http://www.w3.org/2000/svg">
<path d="M29.381 11.1278L14.1008 5L6.40844 16.8013L5 34.4946L20.4779 38.5826M36.7896 11.1278L32.1592 30.5315V42.787L40.0308 45.8509L54.848 41.2551M54.848 41.2551L56.2371 13.681M54.848 41.2551L56.2371 53M68.5151 51.9787L67.0606 30.5315L69.6651 12.1481M72.4434 16.2333L85.8714 18.2759L86.7975 30.5315L72.4434 34.106M97.9103 51.9787L100.226 34.106L97.9103 10.1055M92.8169 19.2972L108.097 16.2333H118.747L121.525 30.5315L92.8169 38.7019M105.782 36.6593L127.545 46.3616M131.712 10.1055L136.342 30.5315L137.731 49.9361M141.899 12.1481L154.864 10.1055L168.292 11.6375M154.864 13.6801L157.642 44.319L163.198 46.3616M173.848 10.1055V32.0634L175.7 45.3403L197 39.7231M178.479 30.5315L194.222 25.9356M177.552 15.212L194.222 11.6375" stroke="#1CE0B9" stroke-width="8"/>
</svg>
