<svg width="200" height="76" viewBox="0 0 200 76" fill="none" xmlns="http://www.w3.org/2000/svg">
<path d="M4 64.5L12.5 46.5L25 29.5M25 33L39.5 39M17 48L32 54M47.5 40L42.5 59V70L68.5 68M47.5 57L63 55.5M50.5 44.5L65 43.5L77.5 40M78.5 52L85 74M72.5 53L80.5 50.5L93 48L96.5 55L82.1932 64.5M85 62L107 67M98.5 43.5L111 36.5L125 32.5L127 41L114.5 48M117.5 49.5L137.5 55M101 32.5L113.5 52L117.5 61.5M135 20.5L139 38L146.5 52L151.5 51L162.5 38.5M162.5 38.5L156 13.5M162.5 38.5L165.5 52M177 49.5L171 20.5L174.5 5.5H178L181.5 13.5L183.5 24.5L187.5 10L190.5 4H192.5L195.5 10V25.5L191.5 53.5" stroke="#F5314B" stroke-width="8"/>
</svg>
